<svg width="1033" height="183" viewBox="0 0 1033 183" fill="none" xmlns="http://www.w3.org/2000/svg">
<g opacity="0.5">
<mask id="path-1-outside-1_30_2055" maskUnits="userSpaceOnUse" x="0" y="0" width="1033" height="183" fill="black">
<rect fill="white" width="1033" height="183"/>
<path d="M70.75 181.5C57.0833 181.5 44 179.583 31.5 175.75C19 171.75 9.08333 166.667 1.75 160.5L13 135.25C20 140.75 28.6667 145.333 39 149C49.3333 152.667 59.9167 154.5 70.75 154.5C79.9167 154.5 87.3333 153.5 93 151.5C98.6667 149.5 102.833 146.833 105.5 143.5C108.167 140 109.5 136.083 109.5 131.75C109.5 126.417 107.583 122.167 103.75 119C99.9167 115.667 94.9167 113.083 88.75 111.25C82.75 109.25 76 107.417 68.5 105.75C61.1667 104.083 53.75 102.167 46.25 100C38.9167 97.6667 32.1667 94.75 26 91.25C20 87.5833 15.0833 82.75 11.25 76.75C7.41667 70.75 5.5 63.0833 5.5 53.75C5.5 44.25 8 35.5833 13 27.75C18.1667 19.75 25.9167 13.4167 36.25 8.74999C46.75 3.91666 60 1.49999 76 1.49999C86.5 1.49999 96.9167 2.83333 107.25 5.5C117.583 8.16666 126.583 12 134.25 17L124 42.25C116.167 37.5833 108.083 34.1667 99.75 32C91.4167 29.6667 83.4167 28.5 75.75 28.5C66.75 28.5 59.4167 29.5833 53.75 31.75C48.25 33.9167 44.1667 36.75 41.5 40.25C39 43.75 37.75 47.75 37.75 52.25C37.75 57.5833 39.5833 61.9167 43.25 65.25C47.0833 68.4167 52 70.9167 58 72.75C64.1667 74.5833 71 76.4167 78.5 78.25C86 79.9167 93.4167 81.8333 100.75 84C108.25 86.1667 115 89 121 92.5C127.167 96 132.083 100.75 135.75 106.75C139.583 112.75 141.5 120.333 141.5 129.5C141.5 138.833 138.917 147.5 133.75 155.5C128.75 163.333 121 169.667 110.5 174.5C100 179.167 86.75 181.5 70.75 181.5ZM252.977 179V152L251.227 146.25V99C251.227 89.8333 248.477 82.75 242.977 77.75C237.477 72.5833 229.143 70 217.977 70C210.477 70 203.06 71.1667 195.727 73.5C188.56 75.8333 182.477 79.0833 177.477 83.25L165.227 60.5C172.393 55 180.893 50.9167 190.727 48.25C200.727 45.4167 211.06 44 221.727 44C241.06 44 255.977 48.6667 266.477 58C277.143 67.1667 282.477 81.4167 282.477 100.75V179H252.977ZM210.977 180.75C200.977 180.75 192.227 179.083 184.727 175.75C177.227 172.25 171.393 167.5 167.227 161.5C163.227 155.333 161.227 148.417 161.227 140.75C161.227 133.25 162.977 126.5 166.477 120.5C170.143 114.5 176.06 109.75 184.227 106.25C192.393 102.75 203.227 101 216.727 101H255.477V121.75H218.977C208.31 121.75 201.143 123.5 197.477 127C193.81 130.333 191.977 134.5 191.977 139.5C191.977 145.167 194.227 149.667 198.727 153C203.227 156.333 209.477 158 217.477 158C225.143 158 231.977 156.25 237.977 152.75C244.143 149.25 248.56 144.083 251.227 137.25L256.477 156C253.477 163.833 248.06 169.917 240.227 174.25C232.56 178.583 222.81 180.75 210.977 180.75ZM322.582 179V45.5H352.332V82.25L348.832 71.5C352.832 62.5 359.082 55.6667 367.582 51C376.249 46.3333 386.999 44 399.832 44V73.75C398.499 73.4167 397.249 73.25 396.082 73.25C394.915 73.0833 393.749 73 392.582 73C380.749 73 371.332 76.5 364.332 83.5C357.332 90.3333 353.832 100.583 353.832 114.25V179H322.582ZM460.725 179L411.725 45.5H441.225L483.225 163.25H469.225L513.225 45.5H539.475L582.225 163.25H568.475L611.725 45.5H639.475L590.225 179H560.225L521.225 74.75H530.475L490.725 179H460.725ZM739.061 179V152L737.311 146.25V99C737.311 89.8333 734.561 82.75 729.061 77.75C723.561 72.5833 715.227 70 704.061 70C696.561 70 689.144 71.1667 681.811 73.5C674.644 75.8333 668.561 79.0833 663.561 83.25L651.311 60.5C658.477 55 666.977 50.9167 676.811 48.25C686.811 45.4167 697.144 44 707.811 44C727.144 44 742.061 48.6667 752.561 58C763.227 67.1667 768.561 81.4167 768.561 100.75V179H739.061ZM697.061 180.75C687.061 180.75 678.311 179.083 670.811 175.75C663.311 172.25 657.477 167.5 653.311 161.5C649.311 155.333 647.311 148.417 647.311 140.75C647.311 133.25 649.061 126.5 652.561 120.5C656.227 114.5 662.144 109.75 670.311 106.25C678.477 102.75 689.311 101 702.811 101H741.561V121.75H705.061C694.394 121.75 687.227 123.5 683.561 127C679.894 130.333 678.061 134.5 678.061 139.5C678.061 145.167 680.311 149.667 684.811 153C689.311 156.333 695.561 158 703.561 158C711.227 158 718.061 156.25 724.061 152.75C730.227 149.25 734.644 144.083 737.311 137.25L742.561 156C739.561 163.833 734.144 169.917 726.311 174.25C718.644 178.583 708.894 180.75 697.061 180.75ZM977.166 44C987.833 44 997.249 46.0833 1005.42 50.25C1013.75 54.4167 1020.25 60.8333 1024.92 69.5C1029.58 78 1031.92 89 1031.92 102.5V179H1000.67V106.5C1000.67 94.6667 998.083 85.8333 992.916 80C987.749 74.1667 980.333 71.25 970.666 71.25C963.833 71.25 957.749 72.75 952.416 75.75C947.249 78.75 943.166 83.1667 940.166 89C937.333 94.8333 935.916 102.25 935.916 111.25V179H904.666V106.5C904.666 94.6667 902.083 85.8333 896.916 80C891.749 74.1667 884.333 71.25 874.666 71.25C867.833 71.25 861.749 72.75 856.416 75.75C851.249 78.75 847.166 83.1667 844.166 89C841.333 94.8333 839.916 102.25 839.916 111.25V179H808.666V45.5H838.416V81L833.166 70.5C837.666 61.8333 844.166 55.25 852.666 50.75C861.333 46.25 871.166 44 882.166 44C894.666 44 905.499 47.0833 914.666 53.25C923.999 59.4167 930.166 68.75 933.166 81.25L920.916 77C925.249 67 932.416 59 942.416 53C952.416 47 963.999 44 977.166 44Z"/>
</mask>
<path d="M31.5 175.75L31.1952 176.702L31.2068 176.706L31.5 175.75ZM1.75 160.5L0.836562 160.093L0.530137 160.781L1.1064 161.265L1.75 160.5ZM13 135.25L13.6178 134.464L12.6088 133.671L12.0866 134.843L13 135.25ZM39 149L39.3344 148.058L39 149ZM93 151.5L92.6672 150.557L93 151.5ZM105.5 143.5L106.281 144.125L106.288 144.115L106.295 144.106L105.5 143.5ZM103.75 119L103.094 119.755L103.103 119.763L103.113 119.771L103.75 119ZM88.75 111.25L88.4338 112.199L88.4493 112.204L88.465 112.209L88.75 111.25ZM68.5 105.75L68.2784 106.725L68.2831 106.726L68.5 105.75ZM46.25 100L45.9468 100.953L45.9596 100.957L45.9725 100.961L46.25 100ZM26 91.25L25.4785 92.1033L25.4923 92.1117L25.5064 92.1197L26 91.25ZM11.25 76.75L10.4073 77.2884L11.25 76.75ZM13 27.75L12.16 27.2075L12.1571 27.212L13 27.75ZM36.25 8.74998L36.6616 9.66138L36.6681 9.65837L36.25 8.74998ZM107.25 5.5L107 6.46828H107L107.25 5.5ZM134.25 17L135.177 17.3761L135.487 16.6126L134.796 16.1624L134.25 17ZM124 42.25L123.488 43.1091L124.489 43.7051L124.927 42.6261L124 42.25ZM99.75 32L99.4804 32.963L99.4893 32.9655L99.4984 32.9678L99.75 32ZM53.75 31.75L53.3928 30.8159L53.3835 30.8196L53.75 31.75ZM41.5 40.25L40.7046 39.644L40.6952 39.6562L40.6863 39.6688L41.5 40.25ZM43.25 65.25L42.5773 65.9899L42.5949 66.0059L42.6131 66.021L43.25 65.25ZM58 72.75L57.7078 73.7064L57.715 73.7085L58 72.75ZM78.5 78.25L78.2626 79.2214L78.2728 79.2239L78.2831 79.2262L78.5 78.25ZM100.75 84L100.467 84.959L100.472 84.9607L100.75 84ZM121 92.5L120.496 93.3638L120.506 93.3697L121 92.5ZM135.75 106.75L134.897 107.271L134.902 107.28L134.907 107.288L135.75 106.75ZM133.75 155.5L132.91 154.957L132.907 154.962L133.75 155.5ZM110.5 174.5L110.906 175.414L110.918 175.408L110.5 174.5ZM70.75 180.5C57.1782 180.5 44.194 178.597 31.7932 174.794L31.2068 176.706C43.806 180.57 56.9885 182.5 70.75 182.5V180.5ZM31.8048 174.798C19.3859 170.824 9.59775 165.793 2.3936 159.735L1.1064 161.265C8.56892 167.541 18.6141 172.676 31.1952 176.702L31.8048 174.798ZM2.66344 160.907L13.9134 135.657L12.0866 134.843L0.836562 160.093L2.66344 160.907ZM12.3822 136.036C19.4847 141.617 28.2527 146.248 38.6656 149.942L39.3344 148.058C29.0806 144.419 20.5153 139.883 13.6178 134.464L12.3822 136.036ZM38.6656 149.942C49.105 153.647 59.8013 155.5 70.75 155.5V153.5C60.032 153.5 49.5617 151.687 39.3344 148.058L38.6656 149.942ZM70.75 155.5C79.9769 155.5 87.5185 154.495 93.3328 152.443L92.6672 150.557C87.1481 152.505 79.8565 153.5 70.75 153.5V155.5ZM93.3328 152.443C99.1071 150.405 103.459 147.652 106.281 144.125L104.719 142.875C102.207 146.015 98.2263 148.595 92.6672 150.557L93.3328 152.443ZM106.295 144.106C109.093 140.435 110.5 136.306 110.5 131.75H108.5C108.5 135.861 107.241 139.565 104.705 142.894L106.295 144.106ZM110.5 131.75C110.5 126.143 108.469 121.601 104.387 118.229L103.113 119.771C106.698 122.732 108.5 126.69 108.5 131.75H110.5ZM104.406 118.245C100.44 114.797 95.3033 112.155 89.035 110.291L88.465 112.209C94.5301 114.012 99.3929 116.536 103.094 119.755L104.406 118.245ZM89.0662 110.301C83.0276 108.288 76.2436 106.446 68.7169 104.774L68.2831 106.726C75.7564 108.387 82.4724 110.212 88.4338 112.199L89.0662 110.301ZM68.7216 104.775C61.4078 103.113 54.0097 101.201 46.5275 99.0393L45.9725 100.961C53.4903 103.133 60.9256 105.054 68.2784 106.725L68.7216 104.775ZM46.5532 99.0471C39.2805 96.733 32.595 93.8433 26.4936 90.3803L25.5064 92.1197C31.7383 95.6567 38.5529 98.6003 45.9468 100.953L46.5532 99.0471ZM26.5215 90.3967C20.6527 86.8103 15.8453 82.0853 12.0927 76.2116L10.4073 77.2884C14.3214 83.4147 19.3473 88.3564 25.4785 92.1033L26.5215 90.3967ZM12.0927 76.2116C8.38948 70.4153 6.5 62.9508 6.5 53.75H4.5C4.5 63.2159 6.44385 71.0847 10.4073 77.2884L12.0927 76.2116ZM6.5 53.75C6.5 44.4362 8.94789 35.9569 13.8429 28.288L12.1571 27.212C7.05211 35.2097 4.5 44.0638 4.5 53.75H6.5ZM13.84 28.2925C18.8839 20.4827 26.4697 14.2641 36.6616 9.66135L35.8384 7.83862C25.3636 12.5692 17.4495 19.0172 12.16 27.2075L13.84 28.2925ZM36.6681 9.65837C46.9968 4.90392 60.0923 2.49999 76 2.49999V0.499992C59.9077 0.499992 46.5032 2.9294 35.8319 7.84161L36.6681 9.65837ZM76 2.49999C86.4143 2.49999 96.7471 3.82232 107 6.46828L107.5 4.53172C97.0863 1.84433 86.5857 0.499992 76 0.499992V2.49999ZM107 6.46828C117.245 9.11219 126.142 12.9059 133.704 17.8376L134.796 16.1624C127.025 11.0941 117.921 7.22114 107.5 4.53172L107 6.46828ZM133.323 16.6239L123.073 41.8739L124.927 42.6261L135.177 17.3761L133.323 16.6239ZM124.512 41.3909C116.602 36.6787 108.432 33.224 100.002 31.0322L99.4984 32.9678C107.735 35.1094 115.731 38.4879 123.488 43.1091L124.512 41.3909ZM100.02 31.037C91.6096 28.6822 83.5187 27.5 75.75 27.5V29.5C83.3147 29.5 91.2237 30.6511 99.4804 32.963L100.02 31.037ZM75.75 27.5C66.6814 27.5 59.2146 28.59 53.3929 30.8159L54.1071 32.684C59.6187 30.5767 66.8186 29.5 75.75 29.5V27.5ZM53.3835 30.8196C47.7701 33.0309 43.5137 35.957 40.7046 39.644L42.2954 40.856C44.8196 37.543 48.7299 34.8024 54.1165 32.6804L53.3835 30.8196ZM40.6863 39.6688C38.0593 43.3465 36.75 47.5518 36.75 52.25H38.75C38.75 47.9482 39.9407 44.1535 42.3137 40.8312L40.6863 39.6688ZM36.75 52.25C36.75 57.8409 38.685 62.4514 42.5773 65.9899L43.9227 64.5101C40.4817 61.3819 38.75 57.3257 38.75 52.25H36.75ZM42.6131 66.021C46.5708 69.2904 51.6136 71.8442 57.7078 73.7063L58.2922 71.7936C52.3864 69.9891 47.5959 67.543 43.8869 64.479L42.6131 66.021ZM57.715 73.7085C63.9002 75.5473 70.7496 77.3849 78.2626 79.2214L78.7375 77.2786C71.2504 75.4484 64.4332 73.6193 58.285 71.7915L57.715 73.7085ZM78.2831 79.2262C85.7608 80.8879 93.1554 82.7989 100.467 84.959L101.033 83.041C93.678 80.8678 86.2392 78.9454 78.7169 77.2738L78.2831 79.2262ZM100.472 84.9607C107.903 87.1073 114.575 89.91 120.496 93.3638L121.504 91.6362C115.425 88.09 108.597 85.226 101.028 83.0393L100.472 84.9607ZM120.506 93.3697C126.527 96.7867 131.319 101.417 134.897 107.271L136.603 106.229C132.847 100.083 127.806 95.2133 121.494 91.6303L120.506 93.3697ZM134.907 107.288C138.612 113.087 140.5 120.47 140.5 129.5H142.5C142.5 120.197 140.554 112.413 136.593 106.212L134.907 107.288ZM140.5 129.5C140.5 138.637 137.974 147.116 132.91 154.957L134.59 156.043C139.859 147.884 142.5 139.03 142.5 129.5H140.5ZM132.907 154.962C128.033 162.598 120.45 168.819 110.082 173.592L110.918 175.408C121.55 170.514 129.467 164.068 134.593 156.038L132.907 154.962ZM110.094 173.586C99.7615 178.178 86.6614 180.5 70.75 180.5V182.5C86.8386 182.5 100.239 180.155 110.906 175.414L110.094 173.586ZM252.977 179H251.977V180H252.977V179ZM252.977 152H253.977V151.851L253.933 151.709L252.977 152ZM251.227 146.25H250.227V146.399L250.27 146.541L251.227 146.25ZM242.977 77.75L242.292 78.4788L242.298 78.4844L242.304 78.4899L242.977 77.75ZM195.727 73.5L195.423 72.547L195.417 72.5491L195.727 73.5ZM177.477 83.25L176.596 83.7241L177.176 84.8018L178.117 84.0182L177.477 83.25ZM165.227 60.5L164.618 59.7067L163.943 60.2248L164.346 60.9741L165.227 60.5ZM190.727 48.25L190.988 49.2152L190.999 49.2121L190.727 48.25ZM266.477 58L265.812 58.7474L265.818 58.753L265.825 58.7584L266.477 58ZM282.477 179V180H283.477V179H282.477ZM184.727 175.75L184.304 176.656L184.312 176.66L184.32 176.664L184.727 175.75ZM167.227 161.5L166.388 162.044L166.396 162.057L166.405 162.07L167.227 161.5ZM166.477 120.5L165.623 119.979L165.618 119.987L165.613 119.996L166.477 120.5ZM184.227 106.25L184.62 107.169L184.227 106.25ZM255.477 101H256.477V100H255.477V101ZM255.477 121.75V122.75H256.477V121.75H255.477ZM197.477 127L198.149 127.74L198.158 127.732L198.167 127.723L197.477 127ZM198.727 153L198.131 153.804L198.727 153ZM237.977 152.75L237.483 151.88L237.473 151.886L237.977 152.75ZM251.227 137.25L252.19 136.98L251.383 134.099L250.295 136.886L251.227 137.25ZM256.477 156L257.41 156.358L257.529 156.049L257.44 155.73L256.477 156ZM240.227 174.25L239.742 173.375L239.735 173.379L240.227 174.25ZM253.977 179V152H251.977V179H253.977ZM253.933 151.709L252.183 145.959L250.27 146.541L252.02 152.291L253.933 151.709ZM252.227 146.25V99H250.227V146.25H252.227ZM252.227 99C252.227 89.6224 249.405 82.2425 243.649 77.0101L242.304 78.4899C247.548 83.2575 250.227 90.0443 250.227 99H252.227ZM243.661 77.0211C237.904 71.6125 229.277 69 217.977 69V71C229.009 71 237.049 73.5541 242.292 78.4788L243.661 77.0211ZM217.977 69C210.371 69 202.852 70.1834 195.423 72.5471L196.03 74.4529C203.268 72.15 210.582 71 217.977 71V69ZM195.417 72.5491C188.148 74.9156 181.948 78.222 176.836 82.4818L178.117 84.0182C183.005 79.9447 188.971 76.751 196.036 74.4509L195.417 72.5491ZM178.357 82.7759L166.107 60.0259L164.346 60.9741L176.596 83.7241L178.357 82.7759ZM165.835 61.2933C172.886 55.8822 181.265 51.852 190.988 49.2151L190.465 47.2849C180.522 49.9813 171.9 54.1178 164.618 59.7067L165.835 61.2933ZM190.999 49.2121C200.908 46.4046 211.15 45 221.727 45V43C210.97 43 200.545 44.4287 190.454 47.2879L190.999 49.2121ZM221.727 45C240.907 45 255.554 49.6292 265.812 58.7474L267.141 57.2526C256.399 47.7041 241.212 43 221.727 43V45ZM265.825 58.7584C276.196 67.6715 281.477 81.5938 281.477 100.75H283.477C283.477 81.2395 278.09 66.6619 267.128 57.2416L265.825 58.7584ZM281.477 100.75V179H283.477V100.75H281.477ZM282.477 178H252.977V180H282.477V178ZM210.977 179.75C201.087 179.75 192.48 178.102 185.133 174.836L184.32 176.664C191.973 180.065 200.867 181.75 210.977 181.75V179.75ZM185.149 174.844C177.788 171.408 172.101 166.766 168.048 160.93L166.405 162.07C170.686 168.234 176.665 173.092 184.304 176.656L185.149 174.844ZM168.066 160.956C164.175 154.958 162.227 148.232 162.227 140.75H160.227C160.227 148.601 162.278 155.708 166.388 162.044L168.066 160.956ZM162.227 140.75C162.227 133.412 163.937 126.839 167.34 121.004L165.613 119.996C162.016 126.161 160.227 133.088 160.227 140.75H162.227ZM167.33 121.021C170.863 115.24 176.594 110.609 184.62 107.169L183.833 105.331C175.526 108.891 169.424 113.76 165.623 119.979L167.33 121.021ZM184.62 107.169C192.615 103.743 203.299 102 216.727 102V100C203.155 100 192.171 101.757 183.833 105.331L184.62 107.169ZM216.727 102H255.477V100H216.727V102ZM254.477 101V121.75H256.477V101H254.477ZM255.477 120.75H218.977V122.75H255.477V120.75ZM218.977 120.75C213.595 120.75 209.051 121.191 205.364 122.091C201.683 122.99 198.791 124.363 196.786 126.277L198.167 127.723C199.829 126.137 202.353 124.885 205.839 124.034C209.318 123.184 213.691 122.75 218.977 122.75V120.75ZM196.804 126.26C192.927 129.785 190.977 134.221 190.977 139.5H192.977C192.977 134.779 194.693 130.882 198.149 127.74L196.804 126.26ZM190.977 139.5C190.977 145.479 193.373 150.279 198.131 153.804L199.322 152.196C195.08 149.054 192.977 144.854 192.977 139.5H190.977ZM198.131 153.804C202.863 157.309 209.351 159 217.477 159V157C209.602 157 203.59 155.358 199.322 152.196L198.131 153.804ZM217.477 159C225.301 159 232.312 157.212 238.48 153.614L237.473 151.886C231.641 155.288 224.985 157 217.477 157V159ZM238.47 153.62C244.844 150.002 249.411 144.653 252.158 137.614L250.295 136.886C247.709 143.514 243.442 148.498 237.483 151.88L238.47 153.62ZM250.264 137.52L255.514 156.27L257.44 155.73L252.19 136.98L250.264 137.52ZM255.543 155.642C252.633 163.24 247.385 169.147 239.743 173.375L240.711 175.125C248.735 170.686 254.32 164.427 257.41 156.358L255.543 155.642ZM239.735 173.379C232.261 177.604 222.695 179.75 210.977 179.75V181.75C222.925 181.75 232.859 179.563 240.719 175.121L239.735 173.379ZM322.582 179H321.582V180H322.582V179ZM322.582 45.5V44.5H321.582V45.5H322.582ZM352.332 45.5H353.332V44.5H352.332V45.5ZM352.332 82.25L351.381 82.5596L353.332 82.25H352.332ZM348.832 71.5L347.918 71.0939L347.762 71.4446L347.881 71.8096L348.832 71.5ZM367.582 51L367.108 50.1195L367.101 50.1234L367.582 51ZM399.832 44H400.832V43H399.832V44ZM399.832 73.75L399.59 74.7201L400.832 75.0308V73.75H399.832ZM396.082 73.25L395.941 74.2399L396.011 74.25H396.082V73.25ZM364.332 83.5L365.031 84.2156L365.039 84.2071L364.332 83.5ZM353.832 179V180H354.832V179H353.832ZM323.582 179V45.5H321.582V179H323.582ZM322.582 46.5H352.332V44.5H322.582V46.5ZM351.332 45.5V82.25H353.332V45.5H351.332ZM353.283 81.9404L349.783 71.1904L347.881 71.8096L351.381 82.5596L353.283 81.9404ZM349.746 71.9061C353.659 63.1027 359.758 56.4362 368.063 51.8766L367.101 50.1234C358.406 54.8971 352.006 61.8973 347.918 71.0939L349.746 71.9061ZM368.056 51.8805C376.54 47.3125 387.115 45 399.832 45V43C386.882 43 375.958 45.3542 367.108 50.1195L368.056 51.8805ZM398.832 44V73.75H400.832V44H398.832ZM400.075 72.7798C398.676 72.4301 397.343 72.25 396.082 72.25V74.25C397.154 74.25 398.322 74.4032 399.59 74.7201L400.075 72.7798ZM396.223 72.2601C395.01 72.0868 393.797 72 392.582 72V74C393.701 74 394.82 74.0799 395.941 74.2399L396.223 72.2601ZM392.582 72C380.539 72 370.848 75.5694 363.625 82.7929L365.039 84.2071C371.816 77.4306 380.958 74 392.582 74V72ZM363.633 82.7844C356.375 89.8705 352.832 100.423 352.832 114.25H354.832C354.832 100.744 358.289 90.7962 365.031 84.2156L363.633 82.7844ZM352.832 114.25V179H354.832V114.25H352.832ZM353.832 178H322.582V180H353.832V178ZM460.725 179L459.786 179.345L460.026 180H460.725V179ZM411.725 45.5V44.5H410.292L410.786 45.8446L411.725 45.5ZM441.225 45.5L442.167 45.164L441.93 44.5H441.225V45.5ZM483.225 163.25V164.25H484.643L484.167 162.914L483.225 163.25ZM469.225 163.25L468.288 162.9L467.783 164.25H469.225V163.25ZM513.225 45.5V44.5H512.531L512.288 45.15L513.225 45.5ZM539.475 45.5L540.415 45.1587L540.175 44.5H539.475V45.5ZM582.225 163.25V164.25H583.652L583.165 162.909L582.225 163.25ZM568.475 163.25L567.536 162.905L567.042 164.25H568.475V163.25ZM611.725 45.5V44.5H611.027L610.786 45.1552L611.725 45.5ZM639.475 45.5L640.413 45.8461L640.909 44.5H639.475V45.5ZM590.225 179V180H590.922L591.163 179.346L590.225 179ZM560.225 179L559.288 179.35L559.531 180H560.225V179ZM521.225 74.75V73.75H519.783L520.288 75.1004L521.225 74.75ZM530.475 74.75L531.409 75.1063L531.926 73.75H530.475V74.75ZM490.725 179V180H491.414L491.659 179.356L490.725 179ZM461.663 178.655L412.663 45.1554L410.786 45.8446L459.786 179.345L461.663 178.655ZM411.725 46.5H441.225V44.5H411.725V46.5ZM440.283 45.8359L482.283 163.586L484.167 162.914L442.167 45.164L440.283 45.8359ZM483.225 162.25H469.225V164.25H483.225V162.25ZM470.161 163.6L514.161 45.85L512.288 45.15L468.288 162.9L470.161 163.6ZM513.225 46.5H539.475V44.5H513.225V46.5ZM538.535 45.8413L581.285 163.591L583.165 162.909L540.415 45.1587L538.535 45.8413ZM582.225 162.25H568.475V164.25H582.225V162.25ZM569.413 163.595L612.663 45.8448L610.786 45.1552L567.536 162.905L569.413 163.595ZM611.725 46.5H639.475V44.5H611.725V46.5ZM638.536 45.1539L589.286 178.654L591.163 179.346L640.413 45.8461L638.536 45.1539ZM590.225 178H560.225V180H590.225V178ZM561.161 178.65L522.161 74.3996L520.288 75.1004L559.288 179.35L561.161 178.65ZM521.225 75.75H530.475V73.75H521.225V75.75ZM529.54 74.3937L489.79 178.644L491.659 179.356L531.409 75.1063L529.54 74.3937ZM490.725 178H460.725V180H490.725V178ZM739.061 179H738.061V180H739.061V179ZM739.061 152H740.061V151.851L740.017 151.709L739.061 152ZM737.311 146.25H736.311V146.399L736.354 146.541L737.311 146.25ZM729.061 77.75L728.376 78.4788L728.382 78.4844L728.388 78.4899L729.061 77.75ZM681.811 73.5L681.507 72.547L681.501 72.5491L681.811 73.5ZM663.561 83.25L662.68 83.7241L663.26 84.8018L664.201 84.0182L663.561 83.25ZM651.311 60.5L650.702 59.7067L650.027 60.2248L650.43 60.9741L651.311 60.5ZM676.811 48.25L677.072 49.2152L677.083 49.2121L676.811 48.25ZM752.561 58L751.896 58.7474L751.902 58.753L751.909 58.7584L752.561 58ZM768.561 179V180H769.561V179H768.561ZM670.811 175.75L670.388 176.656L670.396 176.66L670.404 176.664L670.811 175.75ZM653.311 161.5L652.472 162.044L652.48 162.057L652.489 162.07L653.311 161.5ZM652.561 120.5L651.707 119.979L651.702 119.987L651.697 119.996L652.561 120.5ZM670.311 106.25L670.704 107.169L670.311 106.25ZM741.561 101H742.561V100H741.561V101ZM741.561 121.75V122.75H742.561V121.75H741.561ZM683.561 127L684.233 127.74L684.242 127.732L684.251 127.723L683.561 127ZM684.811 153L684.215 153.804L684.811 153ZM724.061 152.75L723.567 151.88L723.557 151.886L724.061 152.75ZM737.311 137.25L738.273 136.98L737.467 134.099L736.379 136.886L737.311 137.25ZM742.561 156L743.494 156.358L743.613 156.049L743.523 155.73L742.561 156ZM726.311 174.25L725.826 173.375L725.818 173.379L726.311 174.25ZM740.061 179V152H738.061V179H740.061ZM740.017 151.709L738.267 145.959L736.354 146.541L738.104 152.291L740.017 151.709ZM738.311 146.25V99H736.311V146.25H738.311ZM738.311 99C738.311 89.6224 735.489 82.2425 729.733 77.0101L728.388 78.4899C733.632 83.2575 736.311 90.0443 736.311 99H738.311ZM729.745 77.0211C723.988 71.6125 715.362 69 704.061 69V71C715.093 71 723.133 73.5541 728.376 78.4788L729.745 77.0211ZM704.061 69C696.455 69 688.936 70.1834 681.507 72.5471L682.114 74.4529C689.352 72.15 696.666 71 704.061 71V69ZM681.501 72.5491C674.232 74.9156 668.032 78.222 662.92 82.4818L664.201 84.0182C669.089 79.9447 675.055 76.751 682.12 74.4509L681.501 72.5491ZM664.441 82.7759L652.191 60.0259L650.43 60.9741L662.68 83.7241L664.441 82.7759ZM651.919 61.2933C658.97 55.8822 667.349 51.852 677.072 49.2151L676.549 47.2849C666.606 49.9813 657.984 54.1178 650.702 59.7067L651.919 61.2933ZM677.083 49.2121C686.992 46.4046 697.234 45 707.811 45V43C697.054 43 686.629 44.4287 676.538 47.2879L677.083 49.2121ZM707.811 45C726.991 45 741.638 49.6292 751.896 58.7474L753.225 57.2526C742.483 47.7041 727.296 43 707.811 43V45ZM751.909 58.7584C762.28 67.6715 767.561 81.5938 767.561 100.75H769.561C769.561 81.2395 764.174 66.6619 753.212 57.2416L751.909 58.7584ZM767.561 100.75V179H769.561V100.75H767.561ZM768.561 178H739.061V180H768.561V178ZM697.061 179.75C687.171 179.75 678.564 178.102 671.217 174.836L670.404 176.664C678.057 180.065 686.951 181.75 697.061 181.75V179.75ZM671.233 174.844C663.872 171.408 658.185 166.766 654.132 160.93L652.489 162.07C656.77 168.234 662.749 173.092 670.388 176.656L671.233 174.844ZM654.15 160.956C650.259 154.958 648.311 148.232 648.311 140.75H646.311C646.311 148.601 648.362 155.708 652.472 162.044L654.15 160.956ZM648.311 140.75C648.311 133.412 650.021 126.839 653.424 121.004L651.697 119.996C648.1 126.161 646.311 133.088 646.311 140.75H648.311ZM653.414 121.021C656.947 115.24 662.678 110.609 670.704 107.169L669.917 105.331C661.61 108.891 655.508 113.76 651.707 119.979L653.414 121.021ZM670.704 107.169C678.699 103.743 689.383 102 702.811 102V100C689.239 100 678.255 101.757 669.917 105.331L670.704 107.169ZM702.811 102H741.561V100H702.811V102ZM740.561 101V121.75H742.561V101H740.561ZM741.561 120.75H705.061V122.75H741.561V120.75ZM705.061 120.75C699.679 120.75 695.135 121.191 691.448 122.091C687.767 122.99 684.875 124.363 682.87 126.277L684.251 127.723C685.913 126.137 688.437 124.885 691.923 124.034C695.402 123.184 699.775 122.75 705.061 122.75V120.75ZM682.888 126.26C679.011 129.785 677.061 134.221 677.061 139.5H679.061C679.061 134.779 680.777 130.882 684.233 127.74L682.888 126.26ZM677.061 139.5C677.061 145.479 679.457 150.279 684.215 153.804L685.406 152.196C681.164 149.054 679.061 144.854 679.061 139.5H677.061ZM684.215 153.804C688.947 157.309 695.435 159 703.561 159V157C695.686 157 689.674 155.358 685.406 152.196L684.215 153.804ZM703.561 159C711.385 159 718.396 157.212 724.564 153.614L723.557 151.886C717.725 155.288 711.069 157 703.561 157V159ZM724.554 153.62C730.928 150.002 735.495 144.653 738.242 137.614L736.379 136.886C733.793 143.514 729.526 148.498 723.567 151.88L724.554 153.62ZM736.348 137.52L741.598 156.27L743.523 155.73L738.273 136.98L736.348 137.52ZM741.627 155.642C738.717 163.24 733.469 169.147 725.826 173.375L726.795 175.125C734.819 170.686 740.404 164.427 743.494 156.358L741.627 155.642ZM725.818 173.379C718.345 177.604 708.779 179.75 697.061 179.75V181.75C709.009 181.75 718.943 179.563 726.803 175.121L725.818 173.379ZM1005.42 50.25L1004.96 51.1408L1004.97 51.1444L1005.42 50.25ZM1024.92 69.5L1024.04 69.9741L1024.04 69.9812L1024.92 69.5ZM1031.92 179V180H1032.92V179H1031.92ZM1000.67 179H999.666V180H1000.67V179ZM992.916 80L993.665 79.337L992.916 80ZM952.416 75.75L951.926 74.8783L951.914 74.8852L952.416 75.75ZM940.166 89L939.277 88.5426L939.271 88.5528L939.267 88.5631L940.166 89ZM935.916 179V180H936.916V179H935.916ZM904.666 179H903.666V180H904.666V179ZM896.916 80L897.665 79.337L896.916 80ZM856.416 75.75L855.926 74.8783L855.914 74.8852L856.416 75.75ZM844.166 89L843.277 88.5426L843.271 88.5528L843.266 88.5631L844.166 89ZM839.916 179V180H840.916V179H839.916ZM808.666 179H807.666V180H808.666V179ZM808.666 45.5V44.5H807.666V45.5H808.666ZM838.416 45.5H839.416V44.5H838.416V45.5ZM838.416 81L837.522 81.4472L839.416 81H838.416ZM833.166 70.5L832.279 70.0392L832.044 70.4914L832.272 70.9472L833.166 70.5ZM852.666 50.75L852.205 49.8625L852.198 49.8662L852.666 50.75ZM914.666 53.25L914.108 54.0797L914.115 54.0843L914.666 53.25ZM933.166 81.25L932.838 82.1947L934.565 82.7938L934.138 81.0166L933.166 81.25ZM920.916 77L919.998 76.6024L919.57 77.5914L920.588 77.9447L920.916 77ZM942.416 53L942.931 53.8575L942.416 53ZM977.166 45C987.701 45 996.957 47.0568 1004.96 51.1407L1005.87 49.3592C997.542 45.1099 987.965 43 977.166 43V45ZM1004.97 51.1444C1013.11 55.2136 1019.46 61.478 1024.04 69.9741L1025.8 69.0259C1021.04 60.1887 1014.39 53.6197 1005.86 49.3556L1004.97 51.1444ZM1024.04 69.9812C1028.6 78.2872 1030.92 89.1057 1030.92 102.5H1032.92C1032.92 88.8943 1030.57 77.7128 1025.79 69.0187L1024.04 69.9812ZM1030.92 102.5V179H1032.92V102.5H1030.92ZM1031.92 178H1000.67V180H1031.92V178ZM1001.67 179V106.5H999.666V179H1001.67ZM1001.67 106.5C1001.67 94.5448 999.059 85.4277 993.665 79.337L992.167 80.663C997.106 86.2389 999.666 94.7886 999.666 106.5H1001.67ZM993.665 79.337C988.264 73.2393 980.545 70.25 970.666 70.25V72.25C980.121 72.25 987.235 75.094 992.167 80.663L993.665 79.337ZM970.666 70.25C963.681 70.25 957.426 71.7847 951.926 74.8784L952.906 76.6216C958.073 73.7153 963.984 72.25 970.666 72.25V70.25ZM951.914 74.8852C946.566 77.9905 942.355 82.5566 939.277 88.5426L941.055 89.4574C943.977 83.7768 947.933 79.5095 952.918 76.6148L951.914 74.8852ZM939.267 88.5631C936.347 94.5748 934.916 102.154 934.916 111.25H936.916C936.916 102.346 938.319 95.0919 941.066 89.4369L939.267 88.5631ZM934.916 111.25V179H936.916V111.25H934.916ZM935.916 178H904.666V180H935.916V178ZM905.666 179V106.5H903.666V179H905.666ZM905.666 106.5C905.666 94.5448 903.059 85.4277 897.665 79.337L896.167 80.663C901.106 86.2389 903.666 94.7886 903.666 106.5H905.666ZM897.665 79.337C892.264 73.2393 884.545 70.25 874.666 70.25V72.25C884.121 72.25 891.235 75.094 896.167 80.663L897.665 79.337ZM874.666 70.25C867.681 70.25 861.426 71.7847 855.926 74.8784L856.906 76.6216C862.073 73.7153 867.984 72.25 874.666 72.25V70.25ZM855.914 74.8852C850.566 77.9905 846.355 82.5566 843.277 88.5426L845.055 89.4574C847.977 83.7768 851.933 79.5095 856.918 76.6148L855.914 74.8852ZM843.266 88.5631C840.347 94.5748 838.916 102.154 838.916 111.25H840.916C840.916 102.346 842.319 95.0919 845.066 89.4369L843.266 88.5631ZM838.916 111.25V179H840.916V111.25H838.916ZM839.916 178H808.666V180H839.916V178ZM809.666 179V45.5H807.666V179H809.666ZM808.666 46.5H838.416V44.5H808.666V46.5ZM837.416 45.5V81H839.416V45.5H837.416ZM839.31 80.5528L834.06 70.0528L832.272 70.9472L837.522 81.4472L839.31 80.5528ZM834.054 70.9608C838.461 62.4715 844.816 56.0372 853.134 51.6338L852.198 49.8662C843.516 54.4628 836.871 61.1951 832.279 70.0392L834.054 70.9608ZM853.127 51.6375C861.634 47.2203 871.306 45 882.166 45V43C871.026 43 861.031 45.2797 852.205 49.8625L853.127 51.6375ZM882.166 45C894.494 45 905.127 48.0382 914.108 54.0797L915.224 52.4203C905.871 46.1284 894.838 43 882.166 43V45ZM914.115 54.0843C923.205 60.0904 929.243 69.1904 932.194 81.4834L934.138 81.0166C931.089 68.3096 924.794 58.7429 915.217 52.4157L914.115 54.0843ZM933.494 80.3052L921.244 76.0552L920.588 77.9447L932.838 82.1947L933.494 80.3052ZM921.834 77.3976C926.078 67.603 933.096 59.758 942.931 53.8575L941.902 52.1425C931.736 58.242 924.421 66.397 919.998 76.6024L921.834 77.3976ZM942.931 53.8575C952.756 47.9623 964.157 45 977.166 45V43C963.842 43 952.076 46.0377 941.902 52.1425L942.931 53.8575Z" fill="black" mask="url(#path-1-outside-1_30_2055)"/>
</g>
</svg>
